<svg width="14" height="13" viewBox="0 0 14 13" fill="none" xmlns="http://www.w3.org/2000/svg">
<path d="M12.3498 0.539396C10.9463 -0.260235 9.15132 0.130554 8.15587 1.40982L7.07233 2.79599L5.97076 1.35637C4.88653 -0.0471422 2.84296 -0.313686 1.42139 0.769832C0.995207 1.10717 0.675213 1.51601 0.46212 1.99565C-0.0529137 3.15067 0.195576 4.50152 1.0306 5.44259L3.39414 8.12615L6.66338 11.8224L6.75223 11.9293L6.77028 11.9473C6.92993 12.125 7.19647 12.125 7.33876 11.9473L7.44566 11.8231L10.7149 8.16221L13.1138 5.46141C13.9842 4.48408 14.2334 3.06252 13.6469 1.88937C13.3623 1.33892 12.9361 0.876645 12.3496 0.539289L12.3498 0.539396Z" fill="black"/>
</svg>
