<svg width="7" height="12" viewBox="0 0 7 12" fill="none" xmlns="http://www.w3.org/2000/svg">
<path d="M5.05804 8.29036C5.05754 8.3115 5.05704 8.33214 5.05704 8.35328V9.13456H1.80911V8.35328C1.80911 8.33214 1.80861 8.311 1.80811 8.29036H5.05804Z" fill="black"/>
<path d="M5.05706 9.51204V9.79294C5.05706 10.1176 4.79277 10.3819 4.46809 10.3819H4.14289V10.7036C4.14289 10.8888 3.99187 11.0399 3.80662 11.0399H3.05806C2.87281 11.0399 2.72179 10.8888 2.72179 10.7036V10.3819H2.39659C2.07191 10.3819 1.80762 10.1176 1.80762 9.79294V9.51204H5.05706Z" fill="black"/>
<path d="M5.79142 1.91731C5.14103 1.28101 4.28119 0.939713 3.37059 0.955822C2.48159 0.971931 1.64798 1.33035 1.02373 1.96564C0.398501 2.60143 0.0546875 3.44262 0.0546875 4.33415C0.0546875 4.35127 0.0546875 4.36889 0.0551909 4.386C0.060225 4.72077 0.12164 5.05803 0.238432 5.38776L0.361261 5.73511L0.362268 5.73712C0.398009 5.83226 0.451873 5.93848 0.523356 6.05376C0.582254 6.1484 0.648703 6.24152 0.726727 6.33767L0.934131 6.5934C1.00008 6.67445 1.06551 6.74543 1.13398 6.80886L1.13549 6.81037C1.45415 7.10637 1.67162 7.49349 1.76173 7.91282H5.10437C5.19398 7.49349 5.41094 7.10738 5.72859 6.8134C6.43084 6.163 6.81594 5.28255 6.81191 4.33367C6.80788 3.41497 6.44594 2.55719 5.79151 1.91735L5.79142 1.91731ZM3.43296 2.51284C2.42868 2.51284 1.61164 3.32985 1.61164 4.33416H1.23409C1.23409 3.12198 2.22074 2.13537 3.43287 2.13537L3.43296 2.51284Z" fill="black"/>
</svg>